<svg xmlns="http://www.w3.org/2000/svg"
     width="48"
     height="48"
     viewBox="0 0 24 24"
     fill="none"
     stroke="currentColor"
     stroke-width="1.8"
     stroke-linecap="round"
     stroke-linejoin="round">

    <!-- Graduation Cap -->
    <path d="M2 8L12 4L22 8L12 12L2 8Z"/>
    <path d="M6 10V13C6 15.2 8.7 17 12 17C15.3 17 18 15.2 18 13V10"/>

    <!-- Tassel -->
    <path d="M22 8V12"/>
    <circle cx="22" cy="13.5" r=".7" fill="currentColor" stroke="none"/>

    <!-- Book -->
    <path d="M8 18.5C8 17.7 8.7 17 9.5 17H12V21H9.5C8.7 21 8 20.3 8 19.5V18.5Z"/>
    <path d="M16 18.5C16 17.7 15.3 17 14.5 17H12V21H14.5C15.3 21 16 20.3 16 19.5V18.5Z"/>

</svg>
